<?xml version="1.0" encoding="UTF-8"?>
<svg version="1.1" xmlns="http://www.w3.org/2000/svg" width="2000" height="288">
<path d="M0 0 C1.61508754 1.34112277 3.21931627 2.6954288 4.8125 4.0625 C5.63363281 4.76117188 6.45476562 5.45984375 7.30078125 6.1796875 C21.24822166 18.37014086 32.46592278 32.54532762 40.8125 49.0625 C41.45445312 50.25552734 41.45445312 50.25552734 42.109375 51.47265625 C45.7630182 58.40781233 48.36326523 65.62675129 50.8125 73.0625 C51.37324219 74.75052734 51.37324219 74.75052734 51.9453125 76.47265625 C56.81176312 92.17146548 57.1160697 107.75406119 56.8125 124.0625 C53.07188188 122.50314367 50.69784364 120.19195322 47.85546875 117.3359375 C47.38941727 116.8694278 46.92336578 116.40291809 46.44319153 115.92227173 C45.45836655 114.9344326 44.47596619 113.94417105 43.49584961 112.95166016 C42.02041957 111.45816953 40.5373426 109.9726425 39.05273438 108.48828125 C35.14478515 104.56033012 31.28293133 100.63217005 27.67675781 96.42236328 C22.92444311 90.95252608 17.76264107 85.88831386 12.62890625 80.78125 C11.56251915 79.71673228 10.49635581 78.65199038 9.43040466 77.58703613 C6.64944593 74.80986167 3.86549556 72.03570575 1.08087158 69.26220703 C-1.7701948 66.42144362 -4.61836669 63.57778128 -7.46679688 60.734375 C-13.03756518 55.1742717 -18.61150319 49.61735982 -24.1875 44.0625 C-25.29952064 45.00893846 -26.41058011 45.95650634 -27.52124023 46.90454102 C-28.14006577 47.43209488 -28.7588913 47.95964874 -29.39646912 48.50318909 C-35.35841772 53.69379278 -40.81115418 59.46510499 -45.87890625 65.5234375 C-47.8656018 67.86002869 -49.92524474 69.98876601 -52.1875 72.0625 C-52.8475 72.0625 -53.5075 72.0625 -54.1875 72.0625 C-54.44797119 72.64676758 -54.70844238 73.23103516 -54.97680664 73.83300781 C-57.11851173 77.77695839 -60.46582442 80.66818414 -63.625 83.8125 C-64.6469043 84.85857422 -64.6469043 84.85857422 -65.68945312 85.92578125 C-66.34751953 86.58449219 -67.00558594 87.24320312 -67.68359375 87.921875 C-68.28357178 88.52483398 -68.8835498 89.12779297 -69.50170898 89.74902344 C-71.1875 91.0625 -71.1875 91.0625 -74.1875 91.0625 C-74.1875 81.1625 -74.1875 71.2625 -74.1875 61.0625 C-92.3375 61.0625 -110.4875 61.0625 -129.1875 61.0625 C-129.001875 67.07339844 -128.81625 73.08429688 -128.625 79.27734375 C-128.54309922 83.11942218 -128.46607981 86.96040266 -128.40625 90.80273438 C-128.31111755 96.88309191 -128.19947579 102.95954323 -127.98046875 109.03686523 C-126.67018945 146.37410072 -126.67018945 146.37410072 -134.52783203 155.69107056 C-137.26962445 158.30497103 -140.10148857 160.58285888 -143.23779297 162.70529175 C-145.91750679 164.57066416 -148.03953593 166.83175104 -150.25 169.22265625 C-151.55933265 170.52662562 -152.87219344 171.82705672 -154.1875 173.125 C-156.4975 175.414375 -158.8075 177.70375 -161.1875 180.0625 C-145.3475 180.5575 -145.3475 180.5575 -129.1875 181.0625 C-129.1875 206.4725 -129.1875 231.8825 -129.1875 258.0625 C-150.51448611 255.0157877 -168.60412608 243.1633654 -185.1875 230.0625 C-186.1775 229.4025 -187.1675 228.7425 -188.1875 228.0625 C-188.1875 227.4025 -188.1875 226.7425 -188.1875 226.0625 C-188.77402344 225.79953125 -189.36054688 225.5365625 -189.96484375 225.265625 C-202.43214769 218.51706681 -212.51069055 200.95986005 -219.1875 189.0625 C-219.6839502 188.17836426 -219.6839502 188.17836426 -220.19042969 187.27636719 C-224.58920404 179.31647981 -228.06893606 171.17097741 -231 162.5625 C-231.4168103 161.3549707 -231.4168103 161.3549707 -231.84204102 160.12304688 C-236.44553993 145.97222452 -237.74172996 132.16344647 -237.625 117.375 C-237.62162628 116.54277924 -237.61825256 115.71055847 -237.61477661 114.8531189 C-237.38429036 75.53423758 -222.63858234 41.13658563 -195.1875 13.0625 C-194.53652344 12.34964844 -193.88554687 11.63679688 -193.21484375 10.90234375 C-144.09675248 -41.67020668 -55.08182797 -43.26022259 0 0 Z " fill="#01A1DD" transform="translate(237.1875,29.9375)"/>
<path d="M0 0 C5.03979814 -1.02811882 10.10611454 -1.92966738 15 0 C19.26572588 3.98761152 21.59752883 9.64657579 24.01123047 14.87207031 C25.25627495 17.55152901 26.67579043 20.1137038 28.125 22.6875 C28.59035156 23.55246094 29.05570313 24.41742188 29.53515625 25.30859375 C31.49036948 28.90097219 33.52616947 32.44521153 35.56274414 35.99194336 C38.20893615 40.60499011 40.82678188 45.23349041 43.4375 49.86669922 C49.38268651 60.41547516 55.39801394 70.92160813 61.45849609 81.40454102 C66.93446549 90.87746961 72.38094632 100.36712881 77.78662109 109.88037109 C78.58745875 111.27933941 79.39752695 112.67306909 80.21728516 114.06103516 C83 118.79396627 83 118.79396627 83 121 C83.66 121 84.32 121 85 121 C85.27521484 120.27731934 85.55042969 119.55463867 85.83398438 118.81005859 C86.95891668 116.09900943 88.23309569 113.6043818 89.65625 111.0390625 C90.45482422 109.59321777 90.45482422 109.59321777 91.26953125 108.11816406 C91.84058594 107.08916992 92.41164063 106.06017578 93 105 C94.198336 102.82054301 95.39623634 100.64084643 96.59375 98.4609375 C97.89531035 96.09866785 99.19727793 93.73662862 100.5 91.375 C100.84626434 90.74716614 101.19252869 90.11933228 101.54928589 89.47247314 C106.92174397 79.73432763 112.33332272 70.01880836 117.77709961 60.3203125 C121.42104655 53.82657907 125.04628904 47.32283062 128.65698242 40.81054688 C130.53526069 37.42411102 132.41757491 34.03994735 134.30078125 30.65625 C136.78988096 26.18388505 139.26393472 21.70359354 141.73046875 17.21875 C142.90325157 15.10394798 144.07641155 12.98935505 145.25 10.875 C145.7869751 9.89063965 146.3239502 8.9062793 146.87719727 7.89208984 C147.37662842 6.99699707 147.87605957 6.1019043 148.390625 5.1796875 C149.0407959 3.99995361 149.0407959 3.99995361 149.70410156 2.79638672 C151 1 151 1 154 0 C158.33401915 -0.1349321 162.66454355 -0.04292531 167 0 C167.89524634 11.87679149 168.20873858 23.72129431 168.38870239 35.62762451 C168.68254591 54.80592156 169.21051802 73.96565957 169.9234314 93.13275146 C170.88855265 119.10355658 171.23517466 145.0132006 171 171 C160.77 171 150.54 171 140 171 C139.34 141.3 138.68 111.6 138 81 C135.36 86.28 132.72 91.56 130 97 C127.83218977 101.05493289 125.65273493 105.09662092 123.4375 109.125 C119.33368085 116.63641794 115.36980027 124.17439748 111.6015625 131.859375 C109.86484701 135.26503171 107.98614201 138.57310932 106.0625 141.875 C102.03777603 148.78347344 98.46658896 155.8871748 94.95117188 163.06542969 C93.31860753 166.38587113 91.65765411 169.69202654 90 173 C85.71 173 81.42 173 77 173 C76.17757813 171.47632813 75.35515625 169.95265625 74.5078125 168.3828125 C66.88700914 154.27765356 66.88700914 154.27765356 59.125 140.25 C54.81834831 132.55250978 50.65379955 124.78065435 46.5 117 C42.11324991 108.78429926 37.71008387 100.5795091 33.1875 92.4375 C32.7853125 91.71240234 32.383125 90.98730469 31.96875 90.24023438 C30.3954597 87.42211262 28.79137467 84.687062 27 82 C26.67 111.37 26.34 140.74 26 171 C15.77 171 5.54 171 -5 171 C-4.64028862 132.42405582 -3.89820365 93.88040892 -2.60116959 55.32384491 C-2.50020105 52.31848435 -2.40046261 49.31308476 -2.3008728 46.30767822 C-2.14199932 41.53322558 -1.97889605 36.75893551 -1.81217003 31.98475075 C-1.75084653 30.22291871 -1.69037476 28.46105677 -1.63083839 26.69916344 C-1.32705621 17.77082256 -0.97531727 8.88638644 0 0 Z " fill="#01A1DD" transform="translate(1829,63)"/>
<path d="M0 0 C16.65735719 13.68780048 27.97423771 32.64748291 31.10107422 54.11279297 C32.72136378 72.79613191 31.75386528 90.68122365 23.41748047 107.76123047 C23.01013672 108.64939453 22.60279297 109.53755859 22.18310547 110.45263672 C13.66067245 127.67296462 -1.43860341 140.57772972 -18.58251953 148.76123047 C-19.33275391 149.12732422 -20.08298828 149.49341797 -20.85595703 149.87060547 C-43.5633321 159.94555004 -72.04187044 160.19610463 -95.14501953 151.40576172 C-98.3763961 149.9844133 -101.47226674 148.42945697 -104.58251953 146.76123047 C-105.57509766 146.25978516 -106.56767578 145.75833984 -107.59033203 145.24169922 C-126.97155537 134.84263552 -140.91612919 116.25951121 -147.45751953 95.38623047 C-147.84277739 93.84709516 -148.21670729 92.30510304 -148.58251953 90.76123047 C-148.75879883 90.0179248 -148.93507813 89.27461914 -149.11669922 88.50878906 C-154.35958643 64.4863792 -149.60654013 41.31800402 -136.68408203 20.73779297 C-134.26199045 17.3072469 -131.66853149 14.09015369 -128.95751953 10.88623047 C-128.46767578 10.29326172 -127.97783203 9.70029297 -127.47314453 9.08935547 C-126.22252038 7.60637491 -124.90721127 6.17844036 -123.58251953 4.76123047 C-122.92251953 4.76123047 -122.26251953 4.76123047 -121.58251953 4.76123047 C-121.58251953 4.10123047 -121.58251953 3.44123047 -121.58251953 2.76123047 C-87.3449282 -25.1634495 -35.31435306 -27.64347847 0 0 Z M-99.58251953 25.76123047 C-99.58251953 26.42123047 -99.58251953 27.08123047 -99.58251953 27.76123047 C-100.24251953 27.76123047 -100.90251953 27.76123047 -101.58251953 27.76123047 C-112.3484589 40.50680101 -117.40261877 55.62881371 -116.93017578 72.30810547 C-115.24455266 89.05069919 -109.56264918 101.75993452 -97.58251953 113.76123047 C-97.01791016 114.33744141 -96.45330078 114.91365234 -95.87158203 115.50732422 C-85.73942412 125.02166762 -71.57190894 129.3431099 -57.91430664 129.24682617 C-42.83869071 128.6428096 -29.93505974 122.8862175 -19.14501953 112.39013672 C-17.17944023 110.24751076 -15.35595936 108.06405532 -13.58251953 105.76123047 C-12.86064453 104.83310547 -12.13876953 103.90498047 -11.39501953 102.94873047 C-2.11310218 86.62535857 -0.03734518 68.32324561 -4.48486328 50.14013672 C-9.32469457 35.24172368 -19.53922378 23.26016774 -33.14501953 15.63623047 C-55.4656405 5.24032481 -81.59230211 8.27074131 -99.58251953 25.76123047 Z " fill="#01A1DD" transform="translate(1737.58251953125,80.23876953125)"/>
<path d="M0 0 C20.82126962 17.16402713 32.5529634 37.32356776 35.23193359 64.33886719 C36.39121434 81.16855166 33.17943244 98.21962208 25 113 C24.53722656 113.87785156 24.07445312 114.75570312 23.59765625 115.66015625 C12.36673327 135.78870797 -7.17307103 149.40508691 -28.80859375 156.1953125 C-53.36200382 162.98440694 -81.17448438 160.53686404 -103.4921875 148.08984375 C-124.07055953 136.03298559 -138.60062474 118.27222263 -145.0703125 95.1796875 C-150.5297995 70.63849835 -147.97790635 47.04839372 -135.1875 25.1875 C-121.97293457 4.70116232 -102.5098443 -9.29304762 -78.83178711 -14.83911133 C-52.15365871 -20.51393368 -22.17559165 -16.85731749 0 0 Z M-101.0078125 33.4140625 C-112.10380194 48.54495718 -114.92999978 65.22495966 -112.53515625 83.55859375 C-109.49758774 98.53075097 -101.34907165 111.92365052 -89 121 C-75.65043519 129.81495073 -60.24840228 133.4469311 -44.51953125 130.3046875 C-41.24990534 129.37497308 -38.15208066 128.27042034 -35 127 C-33.99324219 126.61070312 -32.98648437 126.22140625 -31.94921875 125.8203125 C-18.59104064 119.9641981 -8.89809039 108.56514476 -3.3125 95.25 C2.53219924 78.02901116 2.5439062 61.24589392 -4.7890625 44.4296875 C-12.56378538 28.83008225 -23.76659636 19.73102598 -40.0703125 13.90234375 C-63.0035716 7.32814281 -85.93919928 15.29654699 -101.0078125 33.4140625 Z " fill="#01A1DD" transform="translate(1506,78)"/>
<path d="M0 0 C84.61465603 0 84.61465603 0 97.3125 4.6875 C98.04976318 4.94732666 98.78702637 5.20715332 99.54663086 5.47485352 C121.23552719 13.3978777 138.43319028 28.3637361 148.53125 49.15234375 C158.42763499 73.07866478 158.27842161 97.1521699 148.40234375 121.046875 C144.03869609 130.2360606 138.10016157 137.77053086 131 145 C130.26265625 145.76183594 129.5253125 146.52367187 128.765625 147.30859375 C94.9115925 180.08338696 42.2349385 170 0 170 C0 113.9 0 57.8 0 0 Z M32 30 C32 66.63 32 103.26 32 141 C74.01995135 142.49460721 74.01995135 142.49460721 107 124 C117.28742013 113.20430813 122.39374631 97.67816947 122.21484375 82.98828125 C121.08710131 67.30240916 114.0374799 53.55031983 102.8125 42.8125 C82.54172907 25.50650169 58.1276509 30 32 30 Z " fill="#01A1DD" transform="translate(973,64)"/>
<path d="M0 0 C1.17277496 -0.00315216 2.34554993 -0.00630432 3.55386353 -0.009552 C4.83594696 -0.00752777 6.1180304 -0.00550354 7.43896484 -0.00341797 C9.41441788 -0.00485306 9.41441788 -0.00485306 11.42977905 -0.00631714 C14.23265748 -0.00779624 17.03550416 -0.00563756 19.83837891 -0.00097656 C23.38711478 0.00464377 26.93577373 0.00149294 30.48450661 -0.00454903 C33.24220323 -0.0082156 35.99988257 -0.00698726 38.7575798 -0.00442123 C40.68861695 -0.00344959 42.61965483 -0.00643425 44.5506897 -0.009552 C59.39685654 0.02890416 72.51791673 0.93300452 86.52490234 6.12939453 C87.72953125 6.57605469 87.72953125 6.57605469 88.95849609 7.03173828 C98.68053562 11.27657244 106.14206189 19.66430778 110.45068359 29.17236328 C114.48007791 39.65642716 114.44648402 50.65747864 110.52490234 61.12939453 C105.75064367 71.63886491 98.00908122 78.55448011 87.52490234 83.12939453 C88.51490234 83.61408203 89.50490234 84.09876953 90.52490234 84.59814453 C102.73513018 90.73340144 111.06403038 97.17672124 116.27490234 110.19189453 C119.46875499 120.56750424 118.08908132 131.42209941 113.52490234 141.12939453 C104.89590207 156.35575704 91.13759264 163.39554591 74.85302734 168.40283203 C65.24253234 170.50089784 55.45888647 170.26294755 45.67333984 170.22705078 C44.1630559 170.22518174 42.65277134 170.22376014 41.14248657 170.22276306 C37.20032019 170.21897612 33.25819165 170.20917926 29.31604004 170.19805908 C25.28019726 170.187762 21.24434827 170.1832478 17.20849609 170.17822266 C9.31394763 170.1675529 1.41942972 170.15052339 -6.47509766 170.12939453 C-6.49842442 148.11180407 -6.51607573 126.09421563 -6.52690983 104.07661533 C-6.53207326 93.85421397 -6.53911685 83.63182027 -6.55053711 73.40942383 C-6.56048251 64.50296665 -6.56695074 55.59651502 -6.56918615 46.69005245 C-6.5704935 41.9711065 -6.5735809 37.25217643 -6.58082771 32.53323555 C-6.58758566 28.09693314 -6.58971508 23.66065323 -6.58820534 19.22434616 C-6.58848177 17.59124441 -6.59048822 15.95814195 -6.59430313 14.32504463 C-6.59923688 12.10518243 -6.59809715 9.88540657 -6.59535217 7.6655426 C-6.59627397 6.42020028 -6.59719576 5.17485796 -6.59814548 3.89177799 C-6.38305826 -0.93685971 -4.31857275 0.00331581 0 0 Z M25.52490234 30.12939453 C25.52490234 44.31939453 25.52490234 58.50939453 25.52490234 73.12939453 C30.22740234 73.21189453 34.92990234 73.29439453 39.77490234 73.37939453 C41.23186523 73.41581055 42.68882812 73.45222656 44.18994141 73.48974609 C54.37466887 73.57537846 64.84954641 72.29052801 73.05615234 65.65283203 C77.74841499 60.78585747 79.83765378 55.81236873 80.21240234 49.06689453 C79.96826967 43.88732296 78.79340479 40.64515206 75.37646484 36.75048828 C68.79421643 30.98754927 61.73866745 29.97442071 53.25927734 30.03173828 C52.20377686 30.0332489 52.20377686 30.0332489 51.12695312 30.03479004 C48.50958618 30.04000448 45.89224255 30.05396572 43.27490234 30.06689453 C34.48865234 30.09783203 34.48865234 30.09783203 25.52490234 30.12939453 Z M25.52490234 97.12939453 C25.52490234 111.64939453 25.52490234 126.16939453 25.52490234 141.12939453 C30.41302734 141.17064453 35.30115234 141.21189453 40.33740234 141.25439453 C41.85567627 141.27260254 43.3739502 141.29081055 44.93823242 141.30957031 C58.03177231 141.36268812 69.42038133 140.62927546 79.46240234 131.44189453 C82.57345777 126.44535097 84.05207473 121.56416722 83.14599609 115.66064453 C81.40077772 109.67703869 78.69521987 105.97560661 73.22412109 102.78955078 C65.81280441 98.90957467 59.05148335 96.80663713 50.62255859 96.93408203 C49.98088745 96.93609619 49.33921631 96.93811035 48.67810059 96.94018555 C46.31446026 96.9505346 43.950923 96.97845583 41.58740234 97.00439453 C33.63646484 97.06626953 33.63646484 97.06626953 25.52490234 97.12939453 Z " fill="#01A1DD" transform="translate(331.47509765625,63.87060546875)"/>
<path d="M0 0 C45.21 0 90.42 0 137 0 C138.29299994 10.34399954 135.41856664 14.83763791 129.625 22.75 C128.5455293 24.25033478 127.46745532 25.75167527 126.390625 27.25390625 C125.83310547 28.03008301 125.27558594 28.80625977 124.70117188 29.60595703 C121.86768917 33.59349024 119.12390507 37.6414184 116.375 41.6875 C111.43923924 48.93282703 106.40017231 56.09250991 101.28320312 63.21044922 C94.593376 72.54005973 88.01814165 81.94447944 81.5625 91.4375 C76.79385484 98.44778554 71.89121828 105.34457527 66.89941406 112.19726562 C60.04351945 121.64131255 53.47318086 131.29022871 47 141 C48.10025009 140.99777939 49.20050018 140.99555878 50.33409119 140.99327087 C60.6792282 140.97304033 71.02436123 140.95802829 81.36951351 140.94818783 C86.68865213 140.94295878 92.00777484 140.93586073 97.3269043 140.92456055 C102.45563985 140.91373245 107.58436006 140.90772333 112.71310616 140.90512276 C114.67441614 140.90326837 116.63572524 140.89964749 118.59702873 140.89426994 C121.33415447 140.88706054 124.07121597 140.88600901 126.80834961 140.88647461 C127.62761932 140.88287933 128.44688904 140.87928406 129.29098511 140.87557983 C134.88594784 140.88594784 134.88594784 140.88594784 136 142 C136 151.24 136 160.48 136 170 C89.14 170 42.28 170 -6 170 C-6 157.62743256 -6 157.62743256 -2.88671875 153.45703125 C-2.22124023 152.53680176 -1.55576172 151.61657227 -0.87011719 150.66845703 C-0.14985352 149.72599121 0.57041016 148.78352539 1.3125 147.8125 C2.79340098 145.78547196 4.2738684 143.7581271 5.75390625 141.73046875 C6.4823877 140.75126465 7.21086914 139.77206055 7.96142578 138.76318359 C10.6539808 135.11356232 13.20990523 131.38143785 15.75 127.625 C20.45715346 120.74545048 25.25908785 113.9342798 30.078125 107.1328125 C32.81070426 103.27408789 35.52281791 99.40124892 38.23242188 95.52636719 C39.91525299 93.12112736 41.6015357 90.71835308 43.2890625 88.31640625 C49.10017072 80.03801668 54.87582527 71.7394397 60.5625 63.375 C65.50239757 56.11004314 70.58265954 48.95884604 75.77563477 41.87255859 C76.28537842 41.17469238 76.79512207 40.47682617 77.3203125 39.7578125 C77.76648926 39.1508252 78.21266602 38.54383789 78.67236328 37.91845703 C80.22029164 35.68167493 81.60048866 33.33251889 83 31 C41.915 30.505 41.915 30.505 0 30 C0 20.1 0 10.2 0 0 Z " fill="#01A1DD" transform="translate(1177,64)"/>
<path d="M0 0 C1.29349365 0.00523682 2.5869873 0.01047363 3.91967773 0.01586914 C4.9496714 0.01799156 4.9496714 0.01799156 6.00047302 0.02015686 C8.20144949 0.0257706 10.40232557 0.03832532 12.60327148 0.05102539 C14.09220231 0.05603863 15.58113473 0.06060184 17.07006836 0.06469727 C20.72700223 0.07574446 24.38387707 0.09301826 28.04077148 0.11352539 C28.04663773 1.42294098 28.05250397 2.73235657 28.05854797 4.08145142 C28.11595343 16.46820315 28.18880733 28.85478232 28.2764864 41.2413578 C28.32106634 47.60823914 28.36034948 53.9750583 28.38720703 60.34204102 C28.41336375 66.49541407 28.45385277 72.64854627 28.50395775 78.80176926 C28.52054316 81.14026247 28.53210894 83.47879725 28.53838539 85.81734085 C28.58651927 102.11441684 28.79713141 116.58513002 37.04077148 131.11352539 C37.48743164 132.17700195 37.48743164 132.17700195 37.94311523 133.26196289 C39.33062348 135.60245723 40.5548229 136.0842232 43.04077148 137.11352539 C43.6659668 137.44352539 44.29116211 137.77352539 44.93530273 138.11352539 C45.56823242 138.44352539 46.20116211 138.77352539 46.85327148 139.11352539 C47.4784668 139.44352539 48.10366211 139.77352539 48.74780273 140.11352539 C59.89742098 144.97605055 73.42698774 144.79151287 84.85327148 140.92602539 C93.1755931 137.46161709 97.96530966 133.17114738 102.04077148 125.11352539 C105.30783564 117.15956336 106.62717098 110.046887 106.57080078 101.48583984 C106.57953217 100.39329391 106.58826355 99.30074799 106.59725952 98.1750946 C106.62141418 94.60882611 106.61824014 91.04314582 106.61499023 87.47680664 C106.62744617 84.9852755 106.64178337 82.49375311 106.65791321 80.00224304 C106.69578802 73.47777466 106.71110421 66.9534579 106.72070312 60.42889404 C106.73806571 49.94769585 106.79714693 39.46659173 106.84946632 28.98552513 C106.86485263 25.32207103 106.87200831 21.65867424 106.87760925 17.99519348 C106.88461996 15.76941905 106.89172043 13.5436449 106.89892578 11.31787109 C106.89839706 10.29303619 106.89786835 9.26820129 106.89732361 8.21231079 C106.90133179 7.28589279 106.90533997 6.35947479 106.9094696 5.40498352 C106.91072688 4.59556462 106.91198416 3.78614573 106.91327953 2.95219898 C107.04077148 1.11352539 107.04077148 1.11352539 108.04077148 0.11352539 C110.3202494 0.01331609 112.60284283 -0.01728764 114.88452148 -0.01928711 C115.56881226 -0.02024384 116.25310303 -0.02120056 116.95812988 -0.02218628 C118.40739026 -0.02286791 119.85665367 -0.02101484 121.3059082 -0.0168457 C123.53140076 -0.01149713 125.75669149 -0.01679121 127.98217773 -0.02319336 C129.3871261 -0.02253257 130.79207434 -0.02125141 132.19702148 -0.01928711 C133.48415039 -0.01815918 134.7712793 -0.01703125 136.09741211 -0.01586914 C139.04077148 0.11352539 139.04077148 0.11352539 140.04077148 1.11352539 C140.14685873 4.26137357 140.18754455 7.3873994 140.18603516 10.53588867 C140.18939377 11.52631165 140.19275238 12.51673462 140.19621277 13.53717041 C140.2057664 16.83607212 140.20766901 20.13492318 140.20874023 23.43383789 C140.21195309 25.72818015 140.21531718 28.02252219 140.21882629 30.31686401 C140.22483088 35.14410882 140.22666517 39.9713357 140.22607422 44.79858398 C140.22597328 50.95031034 140.23954849 57.1019195 140.25684643 63.25361824 C140.26803893 68.00320957 140.2699911 72.75277339 140.26946449 77.50237656 C140.27063667 79.7675097 140.27501514 82.03264374 140.28279686 84.29776382 C140.36149673 109.6039211 139.24907768 135.50994668 121.04077148 155.11352539 C103.70296353 171.38439132 82.75057636 174.89984028 59.65844727 174.24975586 C45.41842132 173.50866889 31.38525336 168.77698713 20.04077148 160.11352539 C19.22479492 159.50379883 18.40881836 158.89407227 17.56811523 158.26586914 C2.73396795 145.63276998 -1.93024956 126.44699552 -3.74708176 107.86512947 C-4.09200148 103.39142214 -4.09833322 98.93220753 -4.08862305 94.44726562 C-4.09037537 93.43304031 -4.09212769 92.418815 -4.09393311 91.37385559 C-4.09829764 88.05659218 -4.0954348 84.73938299 -4.09204102 81.42211914 C-4.09271513 79.10710134 -4.09368606 76.7920836 -4.09494019 74.47706604 C-4.09640942 69.64486003 -4.09428576 64.81267259 -4.08959961 59.98046875 C-4.08387395 53.77272553 -4.08720405 47.56502528 -4.09317207 41.35728359 C-4.09677411 36.58683443 -4.09564126 31.81639558 -4.09304428 27.04594612 C-4.0923755 24.7552903 -4.09320172 22.46463355 -4.09552383 20.17397881 C-4.09804758 16.9877051 -4.09421505 13.80150272 -4.08862305 10.61523438 C-4.09064728 9.66206329 -4.09267151 8.70889221 -4.09475708 7.72683716 C-4.09193726 6.86484207 -4.08911743 6.00284698 -4.08621216 5.11473083 C-4.08583513 4.36170905 -4.08545811 3.60868727 -4.08506966 2.83284664 C-3.86238059 -0.20967228 -3.07967005 0.11814591 0 0 Z " fill="#01A1DD" transform="translate(508.959228515625,63.886474609375)"/>
<path d="M0 0 C10.23 0 20.46 0 31 0 C31 46.53 31 93.06 31 141 C57.4 141 83.8 141 111 141 C111 150.57 111 160.14 111 170 C74.37 170 37.74 170 0 170 C0 113.9 0 57.8 0 0 Z " fill="#01A1DD" transform="translate(815,64)"/>
<path d="M0 0 C10.56 0 21.12 0 32 0 C32 56.1 32 112.2 32 170 C21.44 170 10.88 170 0 170 C0 113.9 0 57.8 0 0 Z " fill="#01A1DD" transform="translate(714,64)"/>
</svg>
