<?xml version="1.0" encoding="utf-8"?>
<!-- Generator: Adobe Illustrator 19.2.1, SVG Export Plug-In . SVG Version: 6.00 Build 0)  -->
<svg version="1.1" id="layer" xmlns="http://www.w3.org/2000/svg" xmlns:xlink="http://www.w3.org/1999/xlink" x="0px" y="0px"
	 viewBox="16 272 620 108" style="enable-background:new 0 0 652 652;" xml:space="preserve">
<style type="text/css">
	.st0{fill:#F19200;}
	.st1{fill:#67747B;}
</style>
<g id="HomeAdvisor_Logo">
	<g>
		<polygon class="st0" points="188.4,349.7 188.4,324.8 166.3,324.8 166.3,349.7 151.5,349.7 151.5,290.1 166.3,290.1 166.3,312.9 
			188.4,312.9 188.4,290.1 203.2,290.1 203.2,349.7 		"/>
		<g>
			<path class="st0" d="M231,350.6c-14.2,0-23.6-8.7-23.6-23.3c0-14.4,9.5-23.2,23.5-23.2c14.2,0,23.6,8.6,23.6,23.2
				C254.6,341.9,245.1,350.6,231,350.6 M231,314.9c-6.1,0-8.9,5.6-8.9,12.5s2.7,12.6,8.8,12.6c6.1,0,8.9-5.6,8.9-12.6
				C239.9,320.5,237.1,314.9,231,314.9"/>
			<path class="st0" d="M313.4,349.7v-25.5c0-4.7-1.2-8-5.8-8c-4.7,0-6.8,4.8-7.2,7.7v25.8h-14.4v-25.5c0-4.7-1.2-8-5.8-8
				c-4.7,0-6.8,4.8-7.2,7.7v25.8h-14.4v-44.6H272l0.8,6.8c3.1-4.8,7.1-7.8,13.1-7.8c6.1,0,10.8,2.6,12.9,8.3
				c3.6-4.9,7.8-8.3,14.5-8.3c9.2,0,14.4,5.8,14.4,16.8v28.7H313.4z"/>
			<path class="st0" d="M346.4,330.9c0.3,6.6,5.3,9.2,11,9.2c5.6,0,11.1-2.6,12.8-4.1l4.7,8.3c0,0-6.1,6.3-19.6,6.3
				c-13.5,0-23.4-8.3-23.4-23.2c0-15,9.9-23.3,23.3-23.3c13.3,0,20.9,9.4,20.9,23v3.8H346.4z M354.7,313.7c-5.4,0-8.1,4.1-8.5,8.5
				h16.4C362.6,317.6,360,313.7,354.7,313.7"/>
			<path class="st1" d="M421.9,349.8l-5.5-15.3h-25.8l-5.5,15.3h-6.9l21.6-57.8h7.8l21.8,57.8H421.9z M403.6,298.5l-11,30.3h21.9
				L403.6,298.5z"/>
			<path class="st1" d="M461.5,349.8l-1-6.6c-0.2,0.3-4,7.5-14.2,7.5c-10.9,0-17.8-9.3-17.8-21.8c0-12.4,7.7-21.7,18.7-21.7
				c9.4,0,12.9,6.9,13.4,7.9v-24.9h6.6v59.6H461.5z M448.3,312.6c-7.8,0-12.9,7.4-12.9,16.3c0,8.8,4.7,16.3,12.5,16.3
				c7.8,0,12.9-7.4,12.9-16.3C460.8,320,456,312.6,448.3,312.6"/>
			<polygon class="st1" points="493.8,349.8 486.8,349.8 470.8,308.1 477.9,308.1 490.3,343.3 502.8,308.1 509.8,308.1 			"/>
			<path class="st1" d="M517.2,298.8c-2.6,0-4.8-2-4.8-4.6c0-2.6,2.1-4.7,4.7-4.7c2.6,0,4.8,2,4.8,4.6
				C521.9,296.7,519.8,298.8,517.2,298.8 M513.8,308.1h6.7v41.7h-6.7V308.1z"/>
			<path class="st1" d="M552.1,346.8c-2.5,2.2-6.3,3.8-11.7,3.8c-8.7,0-14.6-5.5-16-7.4l3.9-4.1c2.2,2.5,6.9,6.1,12.3,6.1
				s8.9-2.2,8.9-6.3c0-4.1-4.3-5.5-6.6-6.5c-2.4-0.8-6.1-1.9-8.1-2.8c-2-0.8-8.3-3.4-8.3-10.6c0-7.2,6.2-12,14.8-12
				c8.7,0,13.9,5.2,14.2,5.6l-3.1,4.5c-2.2-2.2-6.4-4.8-11.1-4.8c-4.7,0-8.6,1.9-8.6,5.9c0,4.1,4,5.4,6.8,6.4c2.7,1,5.8,1.9,7.8,2.7
				c2,0.8,8.6,3.5,8.6,10.6C556,341.7,554.4,344.7,552.1,346.8"/>
			<path class="st1" d="M578.2,350.6c-11.7,0-19.7-8.6-19.7-21.7c0-13.2,8-21.8,19.7-21.8s19.7,8.6,19.7,21.8
				C597.9,342.1,590,350.6,578.2,350.6 M578.2,312.6c-8.2,0-12.8,6.7-12.8,16.4c0,9.6,4.6,16.3,12.8,16.3c8.2,0,12.8-6.6,12.8-16.3
				C591,319.3,586.4,312.6,578.2,312.6"/>
			<path class="st1" d="M624.4,314.2c0,0-1.1-0.5-2.9-0.5c-1.9,0-3.9,0.4-6.2,2c-2.4,1.6-5.2,5.1-6,10v24.1h-6.6v-41.7h6.1l0.5,8.4
				c2.2-4.8,7-9.3,12.8-9.3c2,0,3.3,0.5,3.3,0.5L624.4,314.2z"/>
			<path class="st1" d="M100.1,324.9l-1.9-1.9l-28.7-28.7l-24.8,24.8v24.1c0,3.5,2.9,6.4,6.4,6.4h29.3l22.4,22.4v-22.4h12.5
				c3.5,0,6.4-2.9,6.4-6.4v-18.3h-19H100.1z"/>
			<polygon class="st0" points="102.5,279.8 64.1,279.8 25.4,318.5 36.4,318.5 69.6,285.3 102.8,318.5 141.2,318.5 			"/>
		</g>
	</g>
</g>
</svg>
